<?xml version="1.0" encoding="UTF-8"?>
<svg class="icon icon-tabler icon-tabler-resize" width="24" height="24" fill="none" stroke="currentColor" stroke-linecap="round" stroke-linejoin="round" stroke-width="1.5" version="1.1" viewBox="0 0 24 24" xmlns="http://www.w3.org/2000/svg">
 <path d="M0 0h24v24H0z" fill="none" stroke="none"/>
 <path d="m4 5.9999v-1c0-0.55228 0.44772-1 1-1h1m5 0h2m5 0h1c0.55228 0 1 0.44772 1 1v1m0 5v2"/>
 <path d="m4 11.211v2"/>
 <path d="m4 18v1c0 0.55228 0.44772 1 1 1h1m5 0h2m5 0h1c0.55228 0 1-0.44772 1-1v-1"/>
 <rect x="7.1915" y="8.3945" width="9.6169" height="7.2111" ry="1.3" fill="none" stroke="#000" style="paint-order:stroke fill markers"/>
</svg>
